<mxfile host="app.diagrams.net" modified="2020-08-03T17:55:02.872Z" agent="5.0 (X11; Linux x86_64) AppleWebKit/537.36 (KHTML, like Gecko) Chrome/84.0.4147.89 Safari/537.36" etag="if0_p2ekbY--kEmFOJvT" version="13.5.8" type="github">
  <diagram id="prtHgNgQTEPvFCAcTncT" name="Page-1">
    <mxGraphModel dx="1422" dy="745" grid="1" gridSize="10" guides="1" tooltips="1" connect="1" arrows="1" fold="1" page="1" pageScale="1" pageWidth="827" pageHeight="1169" math="0" shadow="0">
      <root>
        <mxCell id="0" />
        <mxCell id="1" parent="0" />
        <mxCell id="dNxyNK7c78bLwvsdeMH5-19" value="Setlist Develpment process" style="swimlane;html=1;childLayout=stackLayout;resizeParent=1;resizeParentMax=0;horizontal=0;startSize=20;horizontalStack=0;" parent="1" vertex="1">
          <mxGeometry x="40" y="80" width="750" height="450" as="geometry" />
        </mxCell>
        <mxCell id="dNxyNK7c78bLwvsdeMH5-20" value="Data storage" style="swimlane;html=1;startSize=20;horizontal=0;" parent="dNxyNK7c78bLwvsdeMH5-19" vertex="1">
          <mxGeometry x="20" width="730" height="180" as="geometry">
            <mxRectangle x="20" width="430" height="20" as="alternateBounds" />
          </mxGeometry>
        </mxCell>
        <mxCell id="tucuP7fHTFOOz9sArsQ8-1" value="&lt;br&gt;Firebase Dev" style="strokeWidth=2;html=1;shape=mxgraph.flowchart.database;whiteSpace=wrap;" vertex="1" parent="dNxyNK7c78bLwvsdeMH5-20">
          <mxGeometry x="100" y="10" width="60" height="60" as="geometry" />
        </mxCell>
        <mxCell id="tucuP7fHTFOOz9sArsQ8-17" style="edgeStyle=orthogonalEdgeStyle;rounded=0;orthogonalLoop=1;jettySize=auto;html=1;exitX=0.16;exitY=0.55;exitDx=0;exitDy=0;exitPerimeter=0;strokeColor=#000000;" edge="1" parent="dNxyNK7c78bLwvsdeMH5-20" source="tucuP7fHTFOOz9sArsQ8-14" target="tucuP7fHTFOOz9sArsQ8-1">
          <mxGeometry relative="1" as="geometry" />
        </mxCell>
        <mxCell id="tucuP7fHTFOOz9sArsQ8-25" value="&lt;br&gt;Firebase&lt;br&gt;Production" style="strokeWidth=2;html=1;shape=mxgraph.flowchart.database;whiteSpace=wrap;" vertex="1" parent="dNxyNK7c78bLwvsdeMH5-20">
          <mxGeometry x="580" width="60" height="60" as="geometry" />
        </mxCell>
        <mxCell id="tucuP7fHTFOOz9sArsQ8-14" value="Netlify staging" style="ellipse;shape=cloud;whiteSpace=wrap;html=1;strokeWidth=2;" vertex="1" parent="dNxyNK7c78bLwvsdeMH5-20">
          <mxGeometry x="340" y="70" width="120" height="80" as="geometry" />
        </mxCell>
        <mxCell id="tucuP7fHTFOOz9sArsQ8-26" value="Netlify&lt;br&gt;Production" style="ellipse;shape=cloud;whiteSpace=wrap;html=1;strokeWidth=2;" vertex="1" parent="dNxyNK7c78bLwvsdeMH5-20">
          <mxGeometry x="590" y="70" width="120" height="80" as="geometry" />
        </mxCell>
        <mxCell id="dNxyNK7c78bLwvsdeMH5-21" value="Development" style="swimlane;html=1;startSize=20;horizontal=0;" parent="dNxyNK7c78bLwvsdeMH5-19" vertex="1">
          <mxGeometry x="20" y="180" width="730" height="150" as="geometry" />
        </mxCell>
        <mxCell id="tucuP7fHTFOOz9sArsQ8-7" style="edgeStyle=orthogonalEdgeStyle;rounded=0;orthogonalLoop=1;jettySize=auto;html=1;exitX=1;exitY=0.5;exitDx=0;exitDy=0;entryX=0;entryY=0.5;entryDx=0;entryDy=0;entryPerimeter=0;strokeColor=#000000;" edge="1" parent="dNxyNK7c78bLwvsdeMH5-21" source="dNxyNK7c78bLwvsdeMH5-26" target="tucuP7fHTFOOz9sArsQ8-5">
          <mxGeometry relative="1" as="geometry" />
        </mxCell>
        <mxCell id="dNxyNK7c78bLwvsdeMH5-26" value="Issue/ Feature request" style="rounded=0;whiteSpace=wrap;html=1;fontFamily=Helvetica;fontSize=12;fontColor=#000000;align=center;" parent="dNxyNK7c78bLwvsdeMH5-21" vertex="1">
          <mxGeometry x="30" y="30" width="80" height="60" as="geometry" />
        </mxCell>
        <mxCell id="tucuP7fHTFOOz9sArsQ8-5" value="Code locally" style="strokeWidth=2;html=1;shape=mxgraph.flowchart.multi-document;whiteSpace=wrap;" vertex="1" parent="dNxyNK7c78bLwvsdeMH5-21">
          <mxGeometry x="130" y="30" width="88" height="60" as="geometry" />
        </mxCell>
        <mxCell id="tucuP7fHTFOOz9sArsQ8-11" value="" style="edgeStyle=orthogonalEdgeStyle;rounded=0;orthogonalLoop=1;jettySize=auto;html=1;strokeColor=#000000;" edge="1" parent="dNxyNK7c78bLwvsdeMH5-21" source="tucuP7fHTFOOz9sArsQ8-5" target="tucuP7fHTFOOz9sArsQ8-10">
          <mxGeometry relative="1" as="geometry" />
        </mxCell>
        <mxCell id="tucuP7fHTFOOz9sArsQ8-10" value="PR request" style="whiteSpace=wrap;html=1;strokeWidth=2;" vertex="1" parent="dNxyNK7c78bLwvsdeMH5-21">
          <mxGeometry x="274" y="30" width="120" height="60" as="geometry" />
        </mxCell>
        <mxCell id="tucuP7fHTFOOz9sArsQ8-13" value="" style="edgeStyle=orthogonalEdgeStyle;rounded=0;orthogonalLoop=1;jettySize=auto;html=1;strokeColor=#000000;" edge="1" parent="dNxyNK7c78bLwvsdeMH5-21" source="tucuP7fHTFOOz9sArsQ8-10" target="tucuP7fHTFOOz9sArsQ8-12">
          <mxGeometry relative="1" as="geometry" />
        </mxCell>
        <mxCell id="tucuP7fHTFOOz9sArsQ8-16" style="edgeStyle=orthogonalEdgeStyle;rounded=0;orthogonalLoop=1;jettySize=auto;html=1;exitX=0.5;exitY=1;exitDx=0;exitDy=0;entryX=0.455;entryY=1;entryDx=0;entryDy=0;entryPerimeter=0;strokeColor=#000000;" edge="1" parent="dNxyNK7c78bLwvsdeMH5-21" source="tucuP7fHTFOOz9sArsQ8-12" target="tucuP7fHTFOOz9sArsQ8-5">
          <mxGeometry relative="1" as="geometry" />
        </mxCell>
        <mxCell id="tucuP7fHTFOOz9sArsQ8-12" value="PR review" style="rhombus;whiteSpace=wrap;html=1;strokeWidth=2;" vertex="1" parent="dNxyNK7c78bLwvsdeMH5-21">
          <mxGeometry x="440" y="20" width="80" height="80" as="geometry" />
        </mxCell>
        <mxCell id="tucuP7fHTFOOz9sArsQ8-19" value="" style="edgeStyle=orthogonalEdgeStyle;rounded=0;orthogonalLoop=1;jettySize=auto;html=1;strokeColor=#000000;" edge="1" parent="dNxyNK7c78bLwvsdeMH5-21" source="tucuP7fHTFOOz9sArsQ8-12" target="tucuP7fHTFOOz9sArsQ8-18">
          <mxGeometry relative="1" as="geometry" />
        </mxCell>
        <mxCell id="tucuP7fHTFOOz9sArsQ8-18" value="Add PR to next release milestone" style="whiteSpace=wrap;html=1;strokeWidth=2;" vertex="1" parent="dNxyNK7c78bLwvsdeMH5-21">
          <mxGeometry x="550" y="30" width="120" height="60" as="geometry" />
        </mxCell>
        <mxCell id="dNxyNK7c78bLwvsdeMH5-22" value="Release process" style="swimlane;html=1;startSize=20;horizontal=0;" parent="dNxyNK7c78bLwvsdeMH5-19" vertex="1">
          <mxGeometry x="20" y="330" width="730" height="120" as="geometry" />
        </mxCell>
        <mxCell id="tucuP7fHTFOOz9sArsQ8-22" style="edgeStyle=orthogonalEdgeStyle;rounded=0;orthogonalLoop=1;jettySize=auto;html=1;exitX=1;exitY=0.5;exitDx=0;exitDy=0;entryX=0;entryY=0.5;entryDx=0;entryDy=0;strokeColor=#000000;" edge="1" parent="dNxyNK7c78bLwvsdeMH5-22" source="tucuP7fHTFOOz9sArsQ8-20" target="tucuP7fHTFOOz9sArsQ8-21">
          <mxGeometry relative="1" as="geometry" />
        </mxCell>
        <mxCell id="tucuP7fHTFOOz9sArsQ8-20" value="Run test cases between next and previous version" style="rounded=0;whiteSpace=wrap;html=1;" vertex="1" parent="dNxyNK7c78bLwvsdeMH5-22">
          <mxGeometry x="60" y="30" width="120" height="60" as="geometry" />
        </mxCell>
        <mxCell id="tucuP7fHTFOOz9sArsQ8-24" style="edgeStyle=orthogonalEdgeStyle;rounded=0;orthogonalLoop=1;jettySize=auto;html=1;exitX=1;exitY=0.5;exitDx=0;exitDy=0;strokeColor=#000000;" edge="1" parent="dNxyNK7c78bLwvsdeMH5-22" source="tucuP7fHTFOOz9sArsQ8-21" target="tucuP7fHTFOOz9sArsQ8-23">
          <mxGeometry relative="1" as="geometry" />
        </mxCell>
        <mxCell id="tucuP7fHTFOOz9sArsQ8-21" value="Do stuff" style="shape=process;whiteSpace=wrap;html=1;backgroundOutline=1;" vertex="1" parent="dNxyNK7c78bLwvsdeMH5-22">
          <mxGeometry x="260" y="30" width="120" height="60" as="geometry" />
        </mxCell>
        <mxCell id="tucuP7fHTFOOz9sArsQ8-23" value="Release" style="rounded=0;whiteSpace=wrap;html=1;" vertex="1" parent="dNxyNK7c78bLwvsdeMH5-22">
          <mxGeometry x="500" y="30" width="120" height="60" as="geometry" />
        </mxCell>
        <mxCell id="tucuP7fHTFOOz9sArsQ8-6" style="edgeStyle=orthogonalEdgeStyle;rounded=0;orthogonalLoop=1;jettySize=auto;html=1;exitX=0.5;exitY=0;exitDx=0;exitDy=0;exitPerimeter=0;entryX=0.5;entryY=1;entryDx=0;entryDy=0;entryPerimeter=0;dashed=1;" edge="1" parent="dNxyNK7c78bLwvsdeMH5-19" source="tucuP7fHTFOOz9sArsQ8-5" target="tucuP7fHTFOOz9sArsQ8-1">
          <mxGeometry relative="1" as="geometry" />
        </mxCell>
        <mxCell id="tucuP7fHTFOOz9sArsQ8-15" value="" style="edgeStyle=orthogonalEdgeStyle;rounded=0;orthogonalLoop=1;jettySize=auto;html=1;strokeColor=#000000;" edge="1" parent="dNxyNK7c78bLwvsdeMH5-19" source="tucuP7fHTFOOz9sArsQ8-12" target="tucuP7fHTFOOz9sArsQ8-14">
          <mxGeometry relative="1" as="geometry" />
        </mxCell>
        <mxCell id="tucuP7fHTFOOz9sArsQ8-27" style="edgeStyle=orthogonalEdgeStyle;rounded=0;orthogonalLoop=1;jettySize=auto;html=1;exitX=1;exitY=0.5;exitDx=0;exitDy=0;entryX=0.8;entryY=0.8;entryDx=0;entryDy=0;entryPerimeter=0;strokeColor=#000000;" edge="1" parent="dNxyNK7c78bLwvsdeMH5-19" source="tucuP7fHTFOOz9sArsQ8-23" target="tucuP7fHTFOOz9sArsQ8-26">
          <mxGeometry relative="1" as="geometry" />
        </mxCell>
      </root>
    </mxGraphModel>
  </diagram>
</mxfile>
